<?xml version="1.0" standalone="no"?>
<!DOCTYPE svg PUBLIC "-//W3C//DTD SVG 20010904//EN"
 "http://www.w3.org/TR/2001/REC-SVG-20010904/DTD/svg10.dtd">
<svg version="1.0" xmlns="http://www.w3.org/2000/svg"
 width="928.000000pt" height="928.000000pt" viewBox="0 0 928.000000 928.000000"
 preserveAspectRatio="xMidYMid meet">
<metadata>
Created by potrace 1.14, written by Peter Selinger 2001-2017
</metadata>
<g transform="translate(0.000000,928.000000) scale(0.100000,-0.100000)"
fill="#000000" stroke="none">
<path d="M3200 7233 c-80 -17 -191 -58 -224 -84 -13 -10 -27 -19 -31 -19 -8 0
-88 -64 -120 -97 -39 -38 -112 -137 -135 -183 -12 -25 -27 -53 -32 -63 -20
-40 -45 -185 -43 -254 4 -127 73 -221 179 -242 118 -24 217 16 279 111 36 57
37 176 1 255 -23 51 -125 113 -185 113 -18 0 -29 5 -29 14 0 21 64 113 101
143 17 15 37 31 43 37 34 31 101 63 166 81 41 11 183 12 220 2 8 -2 29 -7 45
-12 168 -45 312 -224 361 -450 11 -51 14 -238 4 -280 -5 -22 -11 -51 -14 -65
-12 -61 -42 -149 -64 -190 -13 -25 -42 -79 -63 -120 -63 -117 -249 -354 -445
-567 -47 -50 -93 -100 -102 -111 -9 -10 -53 -59 -97 -107 -44 -48 -89 -98
-101 -111 -12 -13 -52 -58 -90 -100 -38 -42 -77 -86 -87 -98 -10 -12 -28 -32
-40 -46 -76 -85 -82 -99 -83 -182 l-1 -78 757 0 758 0 7 38 c9 42 10 49 19
111 3 23 8 55 10 70 3 14 7 46 11 71 3 25 8 56 10 70 3 14 7 44 10 67 3 24 9
73 15 110 6 38 13 84 15 103 2 19 7 56 10 83 5 35 3 47 -7 48 -7 1 -42 1 -78
2 l-65 0 -17 -74 c-65 -277 -74 -305 -100 -307 -172 -11 -474 -16 -837 -13
l-144 1 40 38 c22 20 110 104 196 185 85 81 165 157 178 168 13 11 47 41 74
67 28 26 83 77 124 112 41 36 82 72 91 80 9 8 54 49 100 90 275 248 401 433
439 647 31 168 -4 387 -82 526 -97 173 -284 322 -477 382 -141 44 -339 56
-470 28z"/>
<path d="M1835 6203 c-33 -9 -62 -19 -65 -23 -3 -4 -15 -10 -27 -14 -35 -11
-132 -86 -202 -157 -71 -71 -187 -221 -246 -320 -22 -35 -45 -70 -52 -77 -7
-7 -13 -17 -13 -22 0 -5 -19 -41 -43 -82 -77 -131 -241 -467 -272 -558 -1 -3
-6 -16 -12 -30 -6 -14 -18 -42 -26 -62 -9 -21 -13 -38 -10 -38 3 0 1 -6 -5
-12 -17 -21 -144 -406 -177 -538 -70 -278 -101 -421 -119 -555 -3 -22 -8 -56
-11 -75 -11 -69 -23 -238 -29 -408 l-2 -54 -116 -111 c-63 -62 -167 -161 -231
-222 -133 -127 -146 -148 -123 -193 25 -49 82 -101 108 -99 19 1 71 48 300
270 21 20 43 37 47 37 5 0 12 7 15 16 11 28 22 6 35 -65 16 -89 17 -93 24
-111 3 -8 8 -26 10 -40 3 -14 11 -43 17 -65 6 -22 12 -44 13 -50 1 -5 6 -16
10 -22 5 -7 6 -13 3 -13 -3 0 3 -20 14 -45 11 -25 20 -49 21 -53 12 -51 92
-167 165 -237 51 -50 136 -107 159 -106 2 0 21 -7 42 -15 52 -22 193 -26 283
-7 86 18 238 82 323 136 31 20 61 37 66 37 5 0 11 3 13 8 2 4 30 27 63 51 49
36 115 90 202 166 56 49 134 131 139 147 10 33 -4 64 -51 112 -25 25 -49 46
-53 46 -16 -1 -54 -28 -99 -70 -77 -74 -235 -213 -278 -246 -88 -69 -273 -161
-360 -180 -49 -11 -143 -6 -173 10 -81 42 -141 142 -167 277 -23 120 -31 294
-20 459 10 148 16 226 20 245 2 11 4 29 4 41 1 12 16 37 34 56 107 115 206
224 287 318 36 41 68 77 71 80 4 4 180 222 242 302 11 12 31 41 45 63 15 22
32 44 39 48 7 4 13 15 13 22 0 8 5 15 10 15 6 0 10 6 10 14 0 8 4 16 8 18 9 3
132 183 132 192 0 5 62 108 70 116 20 20 164 315 216 442 41 100 107 310 119
380 3 17 7 34 9 37 5 7 22 124 31 211 9 86 7 305 -4 351 -15 64 -45 132 -73
164 -27 32 -93 72 -140 86 -59 17 -170 18 -233 2z m218 -256 c18 -23 21 -43
22 -138 1 -61 -2 -132 -7 -158 -4 -25 -11 -57 -13 -71 -3 -14 -8 -38 -11 -55
-2 -16 -12 -55 -20 -85 -8 -30 -17 -66 -20 -80 -10 -51 -97 -296 -140 -398
-63 -146 -172 -358 -238 -462 -83 -130 -207 -310 -276 -398 -44 -57 -80 -107
-80 -112 0 -6 -4 -10 -8 -10 -4 0 -15 -12 -24 -27 -9 -16 -32 -44 -50 -64 -18
-19 -61 -65 -94 -102 l-61 -68 39 168 c21 92 40 175 42 183 3 8 16 60 29 115
27 106 37 144 93 350 85 310 206 708 241 795 4 8 7 17 8 20 1 3 5 14 10 25 4
11 21 54 37 95 36 90 110 244 120 248 5 2 8 8 8 14 0 17 105 170 149 217 31
33 48 43 83 47 23 3 44 7 46 9 11 10 97 -33 115 -58z"/>
<path d="M8779 5980 l-236 -239 -36 47 c-179 233 -403 361 -717 409 -62 10
-360 10 -440 0 -52 -6 -171 -28 -225 -41 -5 -2 -28 -6 -50 -11 -22 -4 -46 -13
-54 -19 -8 -6 -16 -10 -18 -8 -9 7 -169 -49 -288 -101 -68 -29 -281 -140 -309
-160 -6 -4 -61 -40 -122 -80 -61 -41 -118 -79 -125 -85 -100 -83 -156 -129
-167 -137 -52 -39 -295 -291 -350 -361 -60 -77 -174 -231 -185 -250 -7 -12
-44 -75 -84 -140 -63 -105 -153 -281 -159 -309 -1 -5 -11 -30 -22 -55 -48
-105 -108 -317 -132 -466 -22 -136 -25 -177 -24 -364 0 -179 6 -268 20 -331 3
-13 7 -33 9 -45 20 -133 123 -396 199 -507 14 -21 26 -40 26 -43 0 -6 75 -104
110 -144 185 -212 387 -349 641 -433 57 -19 120 -38 139 -42 19 -3 44 -8 55
-10 20 -4 59 -11 120 -21 55 -9 419 -13 470 -4 28 4 73 10 100 14 51 6 62 8
152 27 29 5 56 10 60 11 5 0 15 4 24 9 9 4 27 10 40 13 146 31 466 214 566
324 l24 27 17 -25 c149 -214 277 -318 316 -257 13 19 88 281 100 348 3 13 5
24 7 24 1 0 3 9 5 20 2 11 12 56 24 100 11 44 23 91 26 105 9 37 10 44 17 60
5 13 14 49 22 85 2 6 8 30 15 55 7 25 14 52 15 60 2 8 4 15 5 15 1 0 3 7 5 15
1 8 13 53 25 100 12 47 23 90 24 95 34 134 62 184 105 186 9 0 25 2 36 5 11 2
75 6 142 9 68 2 131 9 142 14 30 17 67 142 62 213 -1 9 -11 20 -23 24 -12 4
-333 8 -713 9 -379 2 -729 5 -776 7 -120 5 -140 -2 -163 -54 -10 -24 -20 -56
-22 -73 -2 -16 -5 -44 -7 -61 -3 -19 2 -40 12 -53 16 -21 25 -22 256 -27 132
-3 258 -6 280 -8 81 -6 124 -31 120 -69 -3 -17 -34 -156 -60 -267 -29 -120
-89 -333 -102 -360 -40 -87 -134 -192 -233 -260 -65 -44 -220 -124 -220 -113
0 5 -4 3 -8 -3 -8 -12 -182 -61 -247 -70 -22 -3 -53 -8 -70 -10 -117 -17 -389
4 -520 40 -206 56 -462 227 -569 380 -42 61 -113 198 -119 233 -2 10 -9 30
-15 46 -7 15 -14 38 -16 50 -3 12 -10 45 -15 72 -19 88 -22 117 -25 286 -3
151 10 304 38 467 3 17 8 47 11 65 3 17 10 48 15 67 5 19 12 49 15 65 3 17 12
55 20 85 9 30 17 62 20 70 2 8 11 37 20 64 9 26 18 56 20 65 2 9 26 72 53 141
153 387 297 638 472 824 73 78 313 284 344 295 6 2 13 7 16 12 9 14 184 120
255 154 62 30 183 79 225 90 126 34 262 66 308 71 73 10 347 9 387 -1 17 -4
35 -8 40 -9 119 -26 234 -87 319 -170 25 -24 46 -49 46 -55 0 -6 5 -11 10 -11
6 0 10 -6 10 -14 0 -8 4 -16 8 -18 10 -4 72 -105 72 -117 0 -4 13 -37 28 -72
27 -61 62 -171 68 -214 1 -11 3 -20 4 -20 2 0 4 -11 16 -95 11 -72 11 -382 1
-490 -8 -79 -7 -87 12 -104 17 -16 32 -18 111 -13 123 7 123 8 156 162 1 6 7
30 14 55 7 25 14 52 15 60 2 8 4 15 5 15 1 0 3 7 14 50 2 11 9 38 15 60 134
527 241 963 287 1173 20 88 12 102 -57 107 l-44 4 -236 -239z"/>
</g>
</svg>
