<?xml version="1.0" standalone="no"?>
<!DOCTYPE svg PUBLIC "-//W3C//DTD SVG 20010904//EN"
 "http://www.w3.org/TR/2001/REC-SVG-20010904/DTD/svg10.dtd">
<svg version="1.0" xmlns="http://www.w3.org/2000/svg"
 width="1232.000000pt" height="1232.000000pt" viewBox="0 0 1232.000000 1232.000000"
 preserveAspectRatio="xMidYMid meet">
<metadata>
Created by potrace 1.14, written by Peter Selinger 2001-2017
</metadata>
<g transform="translate(0.000000,1232.000000) scale(0.100000,-0.100000)"
fill="#000000" stroke="none">
<path d="M4766 8962 c-2 -2 -15 -5 -28 -7 -20 -2 -74 -13 -103 -19 -27 -6
-149 -68 -190 -96 -54 -37 -149 -129 -185 -180 -33 -45 -93 -160 -84 -160 3 0
2 -6 -3 -12 -38 -48 -52 -285 -21 -343 35 -65 97 -104 174 -109 45 -3 118 24
157 58 61 52 77 173 35 256 -33 63 -99 98 -182 96 -25 0 -46 4 -46 9 0 22 73
150 112 196 83 99 203 169 314 185 63 9 137 12 148 6 5 -3 27 -7 50 -8 69 -6
181 -69 252 -141 35 -35 64 -70 64 -78 0 -7 4 -15 9 -17 14 -5 58 -110 77
-184 18 -73 24 -275 11 -349 -31 -168 -158 -439 -254 -540 -7 -8 -13 -17 -13
-21 0 -7 -114 -144 -166 -200 -16 -17 -56 -62 -89 -99 -33 -38 -71 -80 -84
-94 -12 -14 -46 -52 -75 -84 -28 -32 -72 -82 -98 -110 -27 -29 -48 -56 -48
-60 0 -5 -4 -5 -10 -2 -5 3 -10 0 -10 -9 0 -8 -3 -16 -7 -18 -5 -1 -46 -46
-93 -98 -46 -52 -97 -107 -112 -123 -16 -15 -28 -29 -28 -32 0 -3 -18 -23 -39
-44 -49 -49 -61 -71 -67 -125 -4 -31 -2 -44 8 -48 18 -6 1435 -4 1441 2 5 5
10 36 22 120 3 19 10 58 15 85 6 28 12 69 15 93 4 36 14 98 29 177 2 11 7 43
10 70 4 28 11 67 16 88 4 20 5 39 1 41 -5 3 -76 1 -92 -3 -3 0 -6 -7 -7 -13 0
-7 -6 -42 -12 -78 -7 -36 -14 -74 -15 -85 -2 -11 -4 -20 -5 -20 -1 0 -3 -7 -5
-15 -19 -94 -44 -137 -84 -145 -68 -13 -204 -16 -591 -16 -234 0 -429 0 -435
0 -5 1 42 51 105 112 283 274 330 318 399 379 196 173 262 234 381 353 98 97
208 228 247 292 123 204 149 434 75 670 -12 39 -50 115 -67 135 -8 8 -14 20
-14 25 -2 21 -125 147 -184 189 -62 44 -156 92 -197 100 -3 1 -9 4 -15 8 -5 3
-35 11 -65 17 -30 6 -68 13 -85 17 -34 7 -253 12 -259 6z"/>
<path d="M3439 7926 c-3 -3 -19 -6 -37 -8 -18 -1 -32 -6 -32 -10 0 -4 -7 -8
-15 -8 -8 0 -36 -12 -62 -26 -113 -62 -236 -177 -359 -336 -102 -132 -261
-409 -348 -608 -16 -36 -37 -83 -46 -105 -10 -22 -32 -76 -49 -120 -18 -44
-36 -89 -41 -100 -18 -41 -78 -213 -109 -315 -18 -58 -37 -116 -42 -130 -11
-34 -70 -269 -74 -300 -2 -14 -4 -25 -5 -25 -1 0 -3 -7 -5 -15 -2 -8 -7 -26
-10 -40 -3 -14 -8 -38 -10 -55 -2 -16 -6 -39 -8 -50 -9 -38 -25 -146 -42 -285
-10 -80 -16 -173 -20 -303 l-4 -139 -87 -84 c-47 -46 -88 -84 -89 -84 -2 0
-43 -39 -91 -86 -49 -47 -109 -104 -133 -127 -65 -63 -72 -98 -30 -139 26 -26
49 -22 89 13 34 30 233 215 294 274 58 56 64 59 64 33 -1 -22 7 -81 16 -123 4
-19 34 -147 40 -170 14 -53 20 -71 25 -80 3 -5 6 -16 7 -22 4 -22 86 -188 95
-191 5 -2 9 -8 9 -13 0 -9 24 -39 73 -91 43 -44 139 -103 194 -118 26 -7 53
-16 58 -19 13 -8 158 -6 205 2 119 21 270 91 419 194 53 36 98 69 101 72 3 3
28 24 55 46 75 60 184 172 195 200 17 45 -16 96 -56 89 -25 -5 -53 -27 -144
-114 -26 -25 -72 -65 -101 -90 -30 -24 -55 -48 -57 -52 -2 -5 -10 -8 -18 -8
-8 0 -14 -4 -14 -8 0 -12 -177 -126 -242 -155 -85 -39 -158 -55 -240 -53 -81
2 -100 11 -177 76 -28 23 -77 118 -99 191 -39 126 -46 208 -47 489 0 280 -3
269 123 401 171 179 187 197 227 241 22 25 63 71 90 103 28 32 55 63 60 69 33
35 154 187 224 281 45 61 87 116 93 124 89 108 290 450 368 623 23 51 46 102
51 113 45 101 134 409 123 427 -3 4 -1 8 3 8 5 0 9 8 10 18 0 9 5 49 9 87 10
86 11 284 1 345 -19 123 -85 223 -175 263 -45 19 -190 36 -203 23z m111 -129
c0 -4 5 -5 10 -2 25 16 102 -69 116 -127 2 -10 6 -28 9 -40 7 -28 6 -220 0
-268 -3 -19 -7 -53 -9 -75 -2 -22 -5 -40 -6 -40 -1 0 -3 -11 -5 -25 -2 -20
-31 -134 -49 -195 -2 -5 -6 -23 -11 -40 -15 -58 -120 -314 -145 -355 -6 -8
-17 -31 -25 -50 -21 -45 -95 -173 -162 -278 -29 -45 -53 -85 -53 -88 0 -3 -11
-17 -25 -32 -14 -15 -25 -30 -25 -34 0 -4 -23 -38 -51 -75 -27 -37 -58 -79
-67 -92 -41 -57 -141 -181 -246 -306 -69 -81 -91 -105 -179 -200 -36 -38 -82
-88 -102 -110 l-36 -40 6 45 c3 25 13 72 20 105 8 33 26 116 41 185 41 198
100 445 135 570 10 36 21 80 24 99 3 19 11 43 17 55 6 11 13 30 14 41 5 34 9
46 54 185 24 74 45 140 46 145 8 34 87 242 95 251 5 7 9 16 8 20 -1 5 7 31 19
57 12 27 22 51 22 54 0 3 37 80 82 172 153 313 254 445 372 487 36 13 106 13
106 1z"/>
<path d="M8587 7924 c-1 -1 -29 -5 -62 -8 -57 -6 -78 -10 -135 -22 -14 -3 -36
-7 -50 -9 -21 -4 -76 -17 -160 -39 -8 -2 -37 -12 -65 -21 -27 -10 -54 -19 -60
-20 -5 -1 -19 -6 -30 -10 -219 -89 -321 -138 -459 -223 -50 -30 -93 -58 -96
-61 -3 -3 -25 -20 -50 -36 -109 -73 -204 -155 -347 -297 -118 -117 -135 -134
-208 -223 -28 -33 -53 -61 -57 -63 -5 -2 -8 -10 -8 -18 0 -8 -4 -14 -8 -14 -5
0 -26 -26 -48 -57 -21 -32 -41 -60 -44 -63 -6 -5 -51 -73 -113 -172 -19 -31
-33 -59 -30 -62 4 -3 1 -6 -5 -6 -7 0 -12 -4 -12 -9 0 -5 -16 -37 -34 -70 -19
-34 -32 -61 -29 -61 3 0 -4 -15 -15 -33 -35 -60 -132 -334 -147 -417 -3 -14
-7 -35 -10 -47 -3 -13 -7 -32 -9 -42 -3 -11 -8 -41 -12 -68 -3 -26 -8 -57 -10
-67 -24 -131 -22 -444 2 -576 3 -14 6 -34 8 -45 5 -37 27 -130 37 -155 5 -14
11 -34 13 -45 11 -52 113 -276 129 -283 4 -2 7 -8 7 -14 0 -8 34 -61 77 -118
40 -54 134 -160 172 -196 96 -88 126 -114 138 -114 6 0 13 -4 15 -8 8 -22 173
-113 313 -173 58 -24 281 -80 289 -72 3 3 10 2 17 -3 41 -25 485 -25 605 0 12
2 38 7 59 10 151 24 480 151 557 216 7 5 40 30 73 54 33 24 87 71 120 105 55
55 79 73 73 54 -8 -28 113 -224 178 -290 52 -52 86 -57 108 -15 13 26 62 197
72 252 3 14 10 41 16 60 6 19 13 44 14 55 2 11 15 65 29 120 15 55 28 108 28
118 1 9 5 17 10 17 4 0 6 4 3 8 -3 4 13 78 35 163 21 84 41 164 43 177 3 13
13 49 22 80 10 31 18 62 20 68 9 49 48 137 66 151 29 24 103 39 236 47 51 3
102 11 113 16 25 14 39 50 39 99 0 62 -9 63 -301 55 -362 -9 -529 -10 -529 -2
0 4 -11 4 -23 -1 -13 -5 -29 -6 -34 -3 -6 4 -148 7 -316 7 -347 0 -340 2 -353
-82 -12 -79 -11 -79 271 -87 255 -8 327 -23 353 -73 10 -18 8 -116 -2 -131 -5
-8 -15 -55 -21 -97 -2 -11 -4 -20 -5 -20 -2 0 -50 -186 -54 -210 -2 -11 -4
-20 -5 -20 -3 0 -7 -17 -16 -58 -28 -136 -117 -293 -222 -390 -55 -51 -182
-140 -237 -166 -109 -51 -210 -89 -259 -96 -12 -2 -33 -6 -47 -9 -75 -17 -143
-26 -160 -21 -10 3 -21 2 -24 -3 -6 -10 -287 -9 -302 0 -5 3 -31 9 -59 12 -27
4 -75 14 -105 23 -30 9 -59 17 -65 19 -95 21 -313 148 -400 232 -110 106 -201
242 -246 367 -24 68 -38 115 -45 150 -4 22 -9 47 -11 55 -35 145 -34 434 2
670 3 19 8 51 11 70 3 19 7 46 10 60 3 14 7 41 10 60 3 19 8 42 11 50 3 8 7
25 9 37 11 83 104 376 166 523 39 92 136 290 147 300 3 3 15 21 25 40 23 42
105 170 120 187 28 31 36 43 36 48 0 3 28 40 63 83 89 111 239 258 321 317 15
11 37 28 49 38 38 33 209 143 277 179 162 85 331 143 500 172 14 3 25 5 25 6
0 4 98 10 198 13 241 8 406 -43 585 -178 21 -16 115 -110 137 -136 53 -65 116
-188 150 -292 21 -67 41 -157 51 -237 7 -51 8 -351 2 -452 -3 -47 -2 -90 1
-95 19 -26 99 -38 130 -19 18 11 37 56 56 131 9 39 20 77 23 85 3 8 5 18 4 21
-1 4 7 38 18 76 10 37 21 79 24 93 8 32 39 162 66 270 12 47 23 94 25 105 2
11 4 22 6 25 1 3 3 10 4 15 1 6 4 17 7 25 6 14 97 385 103 419 2 9 4 16 5 16
2 0 5 14 13 55 3 14 14 62 26 107 25 98 26 107 5 127 -29 30 -58 19 -122 -46
-74 -76 -73 -75 -295 -322 -100 -111 -114 -118 -136 -70 -13 30 -17 34 -105
130 -61 65 -198 178 -218 179 -3 0 -10 3 -14 8 -25 24 -222 100 -294 112 -19
3 -59 10 -88 15 -44 8 -346 12 -355 4z"/>
</g>
</svg>
